<?xml version="1.0" encoding="utf-8"?>
<!-- Generator: Adobe Illustrator 27.1.1, SVG Export Plug-In . SVG Version: 6.00 Build 0)  -->
<svg version="1.1"
	 id="svg8" xmlns:sodipodi="http://sodipodi.sourceforge.net/DTD/sodipodi-0.dtd" xmlns:cc="http://creativecommons.org/ns#" xmlns:rdf="http://www.w3.org/1999/02/22-rdf-syntax-ns#" xmlns:inkscape="http://www.inkscape.org/namespaces/inkscape" xmlns:dc="http://purl.org/dc/elements/1.1/" xmlns:svg="http://www.w3.org/2000/svg" sodipodi:docname="Seal_of_the_Department_of_Social_Welfare_and_Development.svg"
	 xmlns="http://www.w3.org/2000/svg" xmlns:xlink="http://www.w3.org/1999/xlink" x="0px" y="0px" viewBox="0 0 503.4 421.8"
	 style="enable-background:new 0 0 503.4 421.8;" xml:space="preserve">
<style type="text/css">
	.st0{fill:#0038A8;}
	.st1{fill:#CE1126;}
	.st2{fill:#FFFFFF;}
</style>
<sodipodi:namedview  bordercolor="#666666" borderopacity="1.0" fit-margin-bottom="0" fit-margin-left="0" fit-margin-right="0" fit-margin-top="0" id="base" inkscape:bbox-nodes="true" inkscape:bbox-paths="true" inkscape:current-layer="layer1" inkscape:cx="-66.606047" inkscape:cy="385.96412" inkscape:document-units="mm" inkscape:object-paths="true" inkscape:pageopacity="0.0" inkscape:pageshadow="2" inkscape:snap-bbox="true" inkscape:snap-bbox-edge-midpoints="true" inkscape:snap-bbox-midpoints="true" inkscape:snap-center="true" inkscape:snap-global="false" inkscape:snap-intersection-paths="true" inkscape:snap-midpoints="true" inkscape:snap-object-midpoints="true" inkscape:snap-smooth-nodes="true" inkscape:window-height="1009" inkscape:window-maximized="1" inkscape:window-width="1920" inkscape:window-x="-8" inkscape:window-y="1068" inkscape:zoom="0.72159091" pagecolor="#ffffff" showgrid="false">
	</sodipodi:namedview>
<sodipodi:namedview  bordercolor="#666666" borderopacity="1.0" fit-margin-bottom="0" fit-margin-left="0" fit-margin-right="0" fit-margin-top="0" id="base" inkscape:bbox-nodes="true" inkscape:bbox-paths="true" inkscape:current-layer="layer1" inkscape:cx="-66.606047" inkscape:cy="385.96412" inkscape:document-units="mm" inkscape:object-paths="true" inkscape:pageopacity="0.0" inkscape:pageshadow="2" inkscape:snap-bbox="true" inkscape:snap-bbox-edge-midpoints="true" inkscape:snap-bbox-midpoints="true" inkscape:snap-center="true" inkscape:snap-global="false" inkscape:snap-intersection-paths="true" inkscape:snap-midpoints="true" inkscape:snap-object-midpoints="true" inkscape:snap-smooth-nodes="true" inkscape:window-height="1009" inkscape:window-maximized="1" inkscape:window-width="1920" inkscape:window-x="-8" inkscape:window-y="1068" inkscape:zoom="0.72159091" pagecolor="#ffffff" showgrid="false">
	</sodipodi:namedview>
<g>
	<path id="path2987" inkscape:connector-curvature="0" class="st0" d="M112.9,34.8v90.1l127.6,104.8v83.8h-78.9V260l-71.2-65.2v-160
		L112.9,34.8z"/>
	<g>
		<g>
			<path class="st1" d="M364.2,33.5H137c-6.6,0-12,5.4-12,12v75.3c0,6.6,5.4,12,12,12h87.3l29,50.3l29-50.3h81.9c6.6,0,12-5.4,12-12
				V45.5C376.2,38.9,370.8,33.5,364.2,33.5z M239.7,80.6l-43.2,33.8l-43.2-33.8V55.5c0-1.8,1.3-2.5,2.5-2.5h32.5l8.2,7.1l8.2-7.1
				h32.5c1.2,0,2.5,0.7,2.5,2.5V80.6z"/>
		</g>
		<path id="path2987-7" inkscape:connector-curvature="0" class="st0" d="M389.1,34.8v90.1L261.5,229.7v83.8h78.9V260l71.2-65.2
			v-160L389.1,34.8z"/>
		<g>
			<path class="st0" d="M140.2,326.4h22.7v5.7h-7.7v22.1h7.7v5.7h-22.7v-5.7h7.7v-22.1h-7.7V326.4z"/>
			<path class="st0" d="M187.2,359.8v-15.3c0-2.3-0.3-4-1-5.1c-0.6-1.1-1.7-1.6-3.3-1.6c-1.7,0-3.1,0.7-4.1,2.2
				c-1,1.5-1.5,3.3-1.5,5.5v14.4h-7V339c0-1.4,0-2.6-0.1-3.5c0-0.9-0.1-1.7-0.1-2.5h6.6c0,0.3,0.1,1.2,0.2,2.5s0.1,2.3,0.1,2.8h0.1
				c0.9-2,2.1-3.5,3.5-4.5c1.4-0.9,3.1-1.4,5.1-1.4c5.6,0,8.3,3.4,8.3,10.3v17H187.2z"/>
			<path class="st0" d="M205.3,337.7h-4.1V333h4.5l2.2-7h4.4v7h9.5v4.7h-9.5v13.1c0,1.5,0.1,2.4,0.4,2.9s0.7,0.9,1.3,1.2
				s1.5,0.4,2.6,0.4c2,0,4.2-0.2,6.3-0.7v4.6c-2.3,0.4-4,0.6-5,0.7c-1,0.1-2,0.1-3,0.1c-2.1,0-3.9-0.3-5.3-0.9
				c-1.4-0.6-2.5-1.5-3.2-2.7c-0.7-1.2-1.1-2.9-1.1-5.1L205.3,337.7z"/>
			<path class="st0" d="M243.2,360.3c-4.2,0-7.4-1.2-9.6-3.7c-2.3-2.5-3.4-5.9-3.4-10.3c0-3,0.5-5.5,1.6-7.5c1.1-2,2.6-3.6,4.5-4.7
				c2-1.1,4.3-1.6,7-1.6c3.9,0,7,1.3,9.1,3.9c2.2,2.6,3.2,6.3,3.2,11.1v0.2h-18.2c0,2.4,0.5,4.4,1.6,5.8c1.1,1.4,2.6,2.1,4.4,2.1
				c1.2,0,2.3-0.3,3.2-0.8c0.9-0.5,1.6-1.3,1.9-2.4l6.6,0.6c-0.9,2.3-2.4,4.1-4.5,5.4S246.1,360.3,243.2,360.3z M243.2,336.9
				c-1.7,0-3.1,0.6-4.1,1.7s-1.5,2.7-1.6,4.8h11.4c-0.1-2-0.7-3.6-1.7-4.7C246.2,337.5,244.9,336.9,243.2,336.9z"/>
			<path class="st0" d="M284.9,338.8c-1.9-0.3-3.6-0.5-5.3-0.5c-2.6,0-4.6,1-6.1,2.9c-1.5,2-2.3,4.5-2.3,7.7v10.9h-6.9v-17.4
				c0-1.3-0.1-2.7-0.3-4.4c-0.2-1.7-0.5-3.4-1-5h6.7c0.6,2.1,1,4,1.1,5.7h0.1c0.8-2.2,1.9-3.8,3.3-4.8c1.4-0.9,3.2-1.4,5.5-1.4
				c1.7,0,3.4,0.1,5.1,0.4V338.8z"/>
			<path class="st0" d="M309,359.8v-15.3c0-2.3-0.3-4-1-5.1s-1.7-1.6-3.3-1.6c-1.7,0-3.1,0.7-4.1,2.2c-1,1.5-1.5,3.3-1.5,5.5v14.4
				h-7V339c0-1.4,0-2.6-0.1-3.5c0-0.9-0.1-1.7-0.1-2.5h6.6c0,0.3,0.1,1.2,0.2,2.5s0.1,2.3,0.1,2.8h0.1c0.9-2,2.1-3.5,3.5-4.5
				s3.1-1.4,5.1-1.4c5.6,0,8.3,3.4,8.3,10.3v17H309z"/>
			<path class="st0" d="M334.6,360.3c-4.2,0-7.4-1.2-9.6-3.7c-2.3-2.5-3.4-5.9-3.4-10.3c0-3,0.5-5.5,1.6-7.5s2.6-3.6,4.5-4.7
				c2-1.1,4.3-1.6,7-1.6c3.9,0,7,1.3,9.1,3.9c2.2,2.6,3.2,6.3,3.2,11.1v0.2h-18.2c0,2.4,0.5,4.4,1.6,5.8c1.1,1.4,2.6,2.1,4.4,2.1
				c1.2,0,2.3-0.3,3.2-0.8c0.9-0.5,1.6-1.3,1.9-2.4l6.6,0.6c-0.9,2.3-2.4,4.1-4.5,5.4C340,359.7,337.5,360.3,334.6,360.3z
				 M334.6,336.9c-1.7,0-3.1,0.6-4.1,1.7c-1,1.1-1.5,2.7-1.6,4.8h11.4c-0.1-2-0.7-3.6-1.7-4.7C337.6,337.5,336.2,336.9,334.6,336.9z
				"/>
			<path class="st0" d="M357.7,337.7h-4.1V333h4.5l2.2-7h4.4v7h9.5v4.7h-9.5v13.1c0,1.5,0.1,2.4,0.4,2.9s0.7,0.9,1.3,1.2
				s1.5,0.4,2.6,0.4c2,0,4.2-0.2,6.3-0.7v4.6c-2.3,0.4-4,0.6-5,0.7s-2,0.1-3,0.1c-2.1,0-3.9-0.3-5.3-0.9c-1.4-0.6-2.5-1.5-3.2-2.7
				c-0.7-1.2-1.1-2.9-1.1-5.1L357.7,337.7z"/>
			<path class="st0" d="M164.6,383.5c0,2.2-0.5,4.2-1.5,5.8c-1,1.7-2.5,3-4.4,3.9c-1.9,0.9-4.2,1.4-6.9,1.4H147v11.8h-7.3V373h11.9
				c4.2,0,7.5,0.9,9.7,2.7C163.5,377.4,164.6,380.1,164.6,383.5z M157.2,383.6c0-1.8-0.5-3.1-1.6-3.9s-2.7-1.2-4.9-1.2H147V389h4
				c2.2,0,3.8-0.5,4.8-1.4C156.7,386.7,157.2,385.4,157.2,383.6z"/>
			<path class="st0" d="M177.6,406.9c-2.6,0-4.6-0.7-6.1-2.1c-1.5-1.4-2.2-3.4-2.2-6c0-2.8,0.9-4.9,2.6-6.3c1.7-1.4,4.3-2.2,7.7-2.2
				l5.5-0.1v-1.4c0-1.7-0.3-3-0.9-3.9c-0.6-0.9-1.5-1.3-2.8-1.3c-1.2,0-2.1,0.3-2.7,0.9c-0.6,0.6-0.9,1.6-1.1,2.9l-7.3-0.3
				c0.9-5.3,4.7-8,11.3-8c3.3,0,5.9,0.8,7.7,2.5c1.8,1.6,2.7,4,2.7,7.2v9.7c0,1.5,0.2,2.5,0.5,3.1c0.3,0.6,0.9,0.9,1.7,0.9
				c0.5,0,1,0,1.5-0.1v3.8c-0.4,0.1-0.8,0.2-1.1,0.3c-0.3,0.1-0.7,0.1-1,0.2c-0.3,0-0.7,0.1-1.1,0.1c-0.4,0-0.8,0-1.3,0
				c-1.8,0-3-0.4-3.9-1.3s-1.3-2.1-1.5-3.8H186c-1,1.9-2.2,3.2-3.6,4C181.1,406.5,179.5,406.9,177.6,406.9z M185.2,394l-3.3,0
				c-1.5,0-2.6,0.2-3.2,0.5c-0.7,0.3-1.2,0.7-1.5,1.3c-0.3,0.6-0.5,1.4-0.5,2.5c0,2.5,1,3.8,3,3.8c1.6,0,2.9-0.6,4-1.9
				c1.1-1.3,1.6-2.9,1.6-4.8V394z"/>
			<path class="st0" d="M216.4,406.4h-8.3L198,379.6h7.4l5.2,15.4c0.2,0.8,0.8,2.9,1.8,6.2c0.1-0.4,0.4-1.5,0.9-3.2
				s2.6-7.9,6.3-18.5h7.3L216.4,406.4z"/>
			<path class="st0" d="M247.4,401.7h8.7v4.7h-25.5v-4.7h9.8v-17.4h-7.2v-4.7h14.2V401.7z M240.4,374.7v-5.1h7v5.1H240.4z"/>
			<path class="st0" d="M281.2,401.6l5.4,0v4.7l-8.7-0.1c-1.6-0.3-3.2-1-4.7-2.2c-0.7-0.5-1.3-1.5-1.7-2.8c-0.4-1.1-0.6-2.5-0.6-4.2
				v-22.8h-7.2v-4.7h14.2v28.3c0,1.4,0.2,2.3,0.6,2.7C278.8,401.1,279.8,401.5,281.2,401.6z"/>
			<path class="st0" d="M308.3,401.7h8.7v4.7h-25.5v-4.7h9.8v-17.4h-7.2v-4.7h14.2V401.7z M301.3,374.7v-5.1h7v5.1H301.3z"/>
			<path class="st0" d="M347.2,393c0,4.4-1.1,7.9-3.4,10.3c-2.2,2.4-5.5,3.6-9.7,3.6c-4.1,0-7.2-1.2-9.5-3.6
				c-2.2-2.4-3.4-5.9-3.4-10.3c0-4.4,1.1-7.8,3.3-10.3c2.2-2.4,5.4-3.6,9.6-3.6C342.9,379.1,347.2,383.7,347.2,393z M340,393
				c0-3.2-0.4-5.5-1.3-6.9c-0.8-1.4-2.3-2.2-4.3-2.2c-2,0-3.5,0.7-4.4,2.2s-1.4,3.8-1.4,6.9c0,3.2,0.5,5.5,1.4,7
				c0.9,1.5,2.3,2.2,4.1,2.2c2,0,3.5-0.7,4.5-2.2S340,396.2,340,393z"/>
			<path class="st0" d="M369.9,406.4v-15.3c0-2.3-0.3-4-1-5.1s-1.7-1.6-3.3-1.6c-1.7,0-3.1,0.7-4.1,2.2c-1,1.5-1.5,3.3-1.5,5.5v14.4
				h-7v-20.8c0-1.4,0-2.6-0.1-3.5c0-0.9-0.1-1.7-0.1-2.5h6.6c0,0.3,0.1,1.2,0.2,2.5s0.1,2.3,0.1,2.8h0.1c0.9-2,2.1-3.5,3.5-4.5
				s3.1-1.4,5.1-1.4c5.6,0,8.3,3.4,8.3,10.3v17H369.9z"/>
		</g>
	</g>
</g>
<g>
	<path class="st2" d="M271,73.7v-2.5c0.4-1,1-1.9,1.8-2.9c0.8-1,2-2.1,3.5-3.3c1.2-1,2-1.7,2.3-2c0.4-0.4,0.6-0.7,0.8-1.1
		c0.2-0.4,0.3-0.7,0.3-1.1c0-0.6-0.2-1.1-0.6-1.5c-0.4-0.4-1-0.5-1.8-0.5c-0.8,0-1.4,0.2-1.8,0.6c-0.4,0.4-0.7,1-0.8,1.9l-3.7-0.2
		c0.2-1.7,0.8-3,1.9-3.9c1.1-0.9,2.5-1.3,4.3-1.3c1.9,0,3.4,0.4,4.5,1.3c1.1,0.9,1.6,2,1.6,3.5c0,0.9-0.3,1.9-0.9,2.8
		s-1.5,1.8-2.7,2.7c-1.7,1.3-2.8,2.2-3.4,2.8c-0.6,0.6-1,1.2-1.3,1.7h8.5v3H271z"/>
	<path class="st2" d="M299.7,64.9c0,2.9-0.6,5.2-1.7,6.7s-2.7,2.3-4.8,2.3c-2.1,0-3.7-0.8-4.8-2.3s-1.6-3.8-1.6-6.7
		c0-3,0.5-5.3,1.6-6.8c1.1-1.5,2.7-2.2,4.9-2.2c2.2,0,3.8,0.8,4.8,2.3S299.7,61.9,299.7,64.9z M296.1,64.9c0-1.5-0.1-2.7-0.3-3.6
		s-0.5-1.5-0.8-1.9c-0.4-0.4-0.9-0.6-1.6-0.6c-0.7,0-1.3,0.2-1.7,0.6c-0.4,0.4-0.7,1.1-0.9,1.9c-0.2,0.9-0.3,2.1-0.3,3.6
		c0,1.5,0.1,2.7,0.3,3.6c0.2,0.9,0.5,1.5,0.9,1.9c0.4,0.4,0.9,0.6,1.6,0.6c1,0,1.7-0.5,2.2-1.4S296.1,67.2,296.1,64.9z M291.9,66.5
		v-3.2h2.8v3.2H291.9z"/>
	<path class="st2" d="M302.9,73.7v-2.5c0.4-1,1-1.9,1.8-2.9c0.8-1,2-2.1,3.5-3.3c1.2-1,2-1.7,2.3-2c0.4-0.4,0.6-0.7,0.8-1.1
		c0.2-0.4,0.3-0.7,0.3-1.1c0-0.6-0.2-1.1-0.6-1.5c-0.4-0.4-1-0.5-1.8-0.5c-0.8,0-1.4,0.2-1.8,0.6c-0.4,0.4-0.7,1-0.8,1.9l-3.7-0.2
		c0.2-1.7,0.8-3,1.9-3.9c1.1-0.9,2.5-1.3,4.3-1.3c1.9,0,3.4,0.4,4.5,1.3c1.1,0.9,1.6,2,1.6,3.5c0,0.9-0.3,1.9-0.9,2.8
		s-1.5,1.8-2.7,2.7c-1.7,1.3-2.8,2.2-3.4,2.8c-0.6,0.6-1,1.2-1.3,1.7h8.5v3H302.9z"/>
	<path class="st2" d="M329.9,70v3.7h-3.5V70h-8.3v-2.7l7.7-11h4.1v11.1h2.4V70H329.9z M326.5,61.9c0-0.5,0-1,0-1.5s0.1-0.9,0.1-1.1
		c-0.2,0.5-0.6,1.2-1.2,2.1l-4.2,5.8h5.3V61.9z"/>
</g>
</svg>
